<svg width="40" height="40" viewBox="0 0 40 40" fill="none" xmlns="http://www.w3.org/2000/svg">
    <circle cx="20" cy="20" r="5" stroke="#C2C2C2" stroke-width="2"/>
    <path fill-rule="evenodd" clip-rule="evenodd" d="M21 7V11H19V7H21Z" fill="#C2C2C2"/>
    <path fill-rule="evenodd" clip-rule="evenodd" d="M21 29V33H19V29H21Z" fill="#C2C2C2"/>
    <path fill-rule="evenodd" clip-rule="evenodd" d="M33 21L29 21L29 19L33 19L33 21Z" fill="#C2C2C2"/>
    <path fill-rule="evenodd" clip-rule="evenodd" d="M11 21L7 21L7 19L11 19L11 21Z" fill="#C2C2C2"/>
    <path fill-rule="evenodd" clip-rule="evenodd"
          d="M29.2848 13.0234L27.4793 14.747L25.7598 13.1055L27.5653 11.3819L29.2848 13.0234Z" fill="#C2C2C2"/>
    <path fill-rule="evenodd" clip-rule="evenodd"
          d="M14.2389 27.3867L12.4334 29.1102L10.7139 27.4688L12.5194 25.7452L14.2389 27.3867Z" fill="#C2C2C2"/>
    <path fill-rule="evenodd" clip-rule="evenodd"
          d="M12.4336 10.8898L14.2391 12.6134L12.5195 14.2549L10.714 12.5313L12.4336 10.8898Z" fill="#C2C2C2"/>
    <path fill-rule="evenodd" clip-rule="evenodd"
          d="M27.4795 25.2526L29.285 26.9762L27.5654 28.6177L25.7599 26.8941L27.4795 25.2526Z" fill="#C2C2C2"/>
</svg>
