<svg width="200" height="84" viewBox="0 0 200 84" fill="none" xmlns="http://www.w3.org/2000/svg" class="logo">
    <path class="logo-letter"
          d="M187.636 14.6128L169.27 41.5589L168.662 42.4333L169.27 43.1828L188.609 69.4515H173.406L155.527 45.5562V40.6845L173.284 14.6128H187.636Z"
          fill="#111111"/>
    <path class="logo-letter"
          d="M134.003 14.6128L152.369 41.5589L152.977 42.4333L152.369 43.1828L133.03 69.4515H148.234L166.113 45.5562V40.6845L148.355 14.6128H134.003Z"
          fill="#111111"/>
    <path class="logo-letter"
          d="M147.806 14.6128L130.622 43.5L130.588 69.4515H116.304L116.475 43.5L133.382 14.6128H147.806Z"
          fill="#111111"/>
    <path class="logo-letter" d="M99.9473 14.6128L115.555 14.6128L130.622 43.5H116.475L99.9473 14.6128Z"
          fill="#111111"/>
    <path class="logo-letter"
          d="M104.713 14.6128V69.4515H91.2901L72.8124 36.5982V69.4515H59.5771V14.6128H76.5197L91.4783 43.4834V14.6128H104.713Z"
          fill="#111111"/>
    <path d="M34.3447 14.6128C39.2146 14.6128 43.4758 15.4872 47.0065 17.1111C50.5372 18.7351 53.2156 21.1085 55.1636 23.9816C56.9898 26.9796 57.9638 30.4773 57.9638 34.5996C57.9638 38.5969 56.9898 42.2195 55.1636 45.0926C53.3373 48.0906 50.5372 50.3391 47.0065 51.9631C43.4758 53.587 39.2146 54.4614 34.3447 54.4614H23.3874V69.4515H9.99512V14.6128H34.3447ZM23.2656 44.2182H33.3707C36.9014 44.2182 39.7016 43.3438 41.5278 41.7199C43.4758 39.971 44.4498 37.5976 44.4498 34.5996C44.4498 31.6016 43.4758 29.1032 41.5278 27.3544C39.7016 25.7304 36.9014 24.856 33.3707 24.856H23.2656V44.2182Z"
          fill="#1D8AED"/>
    <path d="M180 42.5L189 30L189 54L180 42.5Z" fill="#1D8AED"/>
</svg>
